<svg width="95" height="10" viewBox="0 0 95 10" fill="none" xmlns="http://www.w3.org/2000/svg">
  <path d="M6 3V2H7V3H6ZM5 9V10H2V9H5ZM5 9V8H6V9H5ZM2 9H1V8H2V9ZM6 8V7H7V8H6ZM1 8H0V2H1V8ZM6 2H5V1H6V2ZM1 2V1H2V2H1ZM5 1H2V0H5V1ZM14.9844 10V5H15.9844V10H14.9844ZM7.98438 10V0H14.9844V1H15.9844V4H14.9844V1H8.98438V4H14.9844V5H8.98438V10H7.98438ZM22.9844 10V5H17.9844V10H16.9844V3H17.9844V4H22.9844V3H23.9844V10H22.9844ZM22.9844 3H21.9844V2H22.9844V3ZM17.9844 3V2H18.9844V3H17.9844ZM21.9844 2H20.9844V1H21.9844V2ZM18.9844 2V1H19.9844V2H18.9844ZM20.9844 1H19.9844V0H20.9844V1ZM24.9844 10V0H31.9844V1H25.9844V4H30.9844V5H25.9844V10H24.9844ZM35.9688 10V1H32.9688V0H40.9688V1H36.9688V1H36.9688V10H35.9688ZM48.9688 9V10H41.9688V9H44.9688V1H41.9688V0H48.9688V1H45.9688V9H48.9688ZM49.9531 10V0H51.9531V1H52.9531V3H53.9531V5H54.9531V7H55.9531V9H56.9531V0H57.9531V10H55.9531V9H54.9531V7H53.9531V5H52.9531V3H51.9531V1H50.9531V10H49.9531ZM64.9531 2V1H65.9531V2H64.9531ZM64.9531 9V10H59.9531V9H64.9531ZM64.9531 9V6H61.9531V5H65.9531V9H64.9531ZM59.9531 9H58.9531V1H59.9531V9ZM64.9531 1H59.9531V0H64.9531V1Z" fill="white"/>
  <path d="M77.1094 9H78.1094V10H74.1094H71.1094V6V2V0H72.1094V4V8V9H76.1094H77.1094ZM85.1094 10V5H80.1094V10H79.1094V3H80.1094V4H85.1094V3H86.1094V10H85.1094ZM85.1094 3H84.1094V2H85.1094V3ZM80.1094 3V2H81.1094V3H80.1094ZM84.1094 2H83.1094V1H84.1094V2ZM81.1094 2V1H82.1094V2H81.1094ZM83.1094 1H82.1094V0H83.1094V1ZM93.1094 9V5H88.1094V9H93.1094ZM87.1094 10V0H93.1094V1H94.1094V4H93.1094V1H88.1094V4H93.1094V5H94.1094V9H93.1094V10H87.1094Z" fill="#00FF00"/>
</svg>
